<?xml version="1.0" encoding="UTF-8" standalone="no"?>
<!-- Created with Inkscape (http://www.inkscape.org/) -->

<svg
   xmlns:dc="http://purl.org/dc/elements/1.1/"
   xmlns:cc="http://creativecommons.org/ns#"
   xmlns:rdf="http://www.w3.org/1999/02/22-rdf-syntax-ns#"
   xmlns:svg="http://www.w3.org/2000/svg"
   xmlns="http://www.w3.org/2000/svg"
   version="1.1"
   width="354.32501"
   height="354.32501"
   id="svg2"
   xml:space="preserve"><metadata
     id="metadata8"><rdf:RDF><cc:Work
         rdf:about=""><dc:format>image/svg+xml</dc:format><dc:type
           rdf:resource="http://purl.org/dc/dcmitype/StillImage" /><dc:title></dc:title></cc:Work></rdf:RDF></metadata><defs
     id="defs6"><clipPath
       id="clipPath16"><path
         d="m 0,283.46 283.46,0 L 283.46,0 0,0 0,283.46 z"
         id="path18" /></clipPath></defs><g
     transform="matrix(1.25,0,0,-1.25,0,354.325)"
     id="g10"><g
       id="g12"><g
         clip-path="url(#clipPath16)"
         id="g14"><g
           transform="translate(175.6836,187.8037)"
           id="g20"><path
             d="m 0,0 0,10.807 c 0,4.579 -3.418,8.811 -9.627,11.921 l -43.76,21.876 -12.035,-6.02 0,-98.772 12.035,-6.02 43.774,21.883 C -3.414,-41.216 0,-36.985 0,-32.414 l 0,10.809 0,0.001 c 0,4.805 -3.762,8.479 -7.607,10.801 C -2.689,-7.829 0,-4.053 0,0 m -23.65,5.321 c -4.852,-2.95 -7.504,-6.692 -7.522,-10.703 0,-0.007 -0.006,-0.013 -0.006,-0.019 l 0,-10.796 c 0,-4.024 2.657,-7.78 7.52,-10.742 l -19.06,-9.552 -0.002,51.348 19.07,-9.536 z"
             id="path22"
             style="fill:#124d7f;fill-opacity:1;fill-rule:nonzero;stroke:none" /></g><g
           transform="translate(112.7349,223.6211)"
           id="g24"><path
             d="m 0,0 41.433,-20.698 c 4.932,-2.474 4.502,-6.185 0.525,-8.325 C 30.75,-23.408 19.539,-17.791 8.327,-12.177 8.329,-40.997 8.33,-69.818 8.333,-98.64 L 0,-94.472 0,0 z"
             id="path26"
             style="fill:#fcb231;fill-opacity:1;fill-rule:nonzero;stroke:none" /></g><g
           transform="translate(157.9082,165.6475)"
           id="g28"><path
             d="m 0,0 c -0.385,-1.599 -1.852,-2.69 -3.205,-3.459 -4.961,2.624 -7.688,5.952 -7.688,9.411 l 0,4.298 C -10.014,9.164 -8.982,8.211 -7.875,7.365 -7.229,6.874 -6.557,6.421 -5.863,5.998 -5.156,5.568 -4.723,5.325 -3.572,4.76 -2.061,4.012 0.473,2.217 0,0 -0.016,-0.062 0.039,0.185 0,0"
             id="path30"
             style="fill:#fcb231;fill-opacity:1;fill-rule:nonzero;stroke:none" /></g><g
           transform="translate(164.9648,156.4951)"
           id="g32"><path
             d="m 0,0 -32,-15.961 0,8.009 22.311,11.142 c 2.519,1.26 5.166,3.446 5.166,6.515 0,1.318 -0.524,2.563 -1.336,3.587 -0.467,0.59 -1.022,1.107 -1.621,1.567 -0.686,0.528 -0.735,0.63 -2.389,1.435 -3.072,1.499 -8.174,5.116 -8.076,9.732 0.041,1.953 0.972,3.744 2.232,5.188 0.76,0.868 1.637,1.629 2.565,2.307 1.128,0.824 2.365,1.408 3.548,2.128 2.52,1.289 5.174,3.539 5.073,6.636 -0.098,2.997 -2.692,5.111 -5.166,6.353 l -41.013,20.487 8.041,4.021 42.651,-21.319 c 3.68,-1.845 8.17,-5.003 8.26,-9.588 C 8.332,37.604 3.598,34.262 0.145,32.485 -2.416,31.17 -2.756,30.792 -3.729,29.61 -4.59,28.563 -5.156,27.278 -5.156,25.905 c 0,-1.315 0.519,-2.557 1.334,-3.58 0.467,-0.59 1.017,-1.108 1.617,-1.566 0.691,-0.533 0.971,-0.711 2.353,-1.427 C 4.896,16.88 7.916,13.718 8.246,9.705 8.578,5.693 3.713,1.861 0,0"
             id="path34"
             style="fill:#00b4ce;fill-opacity:1;fill-rule:nonzero;stroke:none" /></g><g
           transform="translate(81.5249,87.0791)"
           id="g36"><path
             d="m 0,0 0,-9.226 1.952,0 c 2.317,0 3.076,0.759 3.076,3.077 l 0,3.144 C 5.028,-0.724 4.269,0 1.952,0 L 0,0 z m 1.952,2.641 c 2.317,0 3.076,0.723 3.076,3.001 l 0,2.099 c 0,2.28 -0.759,3.004 -3.076,3.004 l -1.952,0 0,-8.104 1.952,0 z m 0.29,10.78 c 3.039,0 5.715,-0.724 5.715,-5.571 l 0,-1.88 C 7.957,3.039 6.982,1.772 5.39,1.194 6.982,0.651 8.102,-0.652 8.102,-3.546 l 0,-2.713 c 0,-4.886 -2.821,-5.644 -5.86,-5.644 l -5.318,0 0,25.324 5.318,0 z"
             id="path38"
             style="fill:#124d7f;fill-opacity:1;fill-rule:nonzero;stroke:none" /></g><g
           transform="translate(96.2852,89.1045)"
           id="g40"><path
             d="m 0,0 c 2.314,0 3.074,0.687 3.074,3.003 l 0,2.713 C 3.074,7.996 2.314,8.72 0,8.72 l -1.955,0 0,-8.72 L 0,0 z m -1.955,-2.678 0,-11.251 -3.073,0 0,25.325 5.318,0 c 3.039,0 5.86,-0.687 5.86,-5.572 l 0,-2.352 C 6.15,0.506 4.956,-0.796 3.329,-1.374 4.993,-1.954 6.15,-3.293 6.15,-6.332 l 0,-1.014 c 0,-4.557 0.325,-5.461 0.832,-6.583 l -3.329,0 c -0.217,0.759 -0.579,2.026 -0.579,5.102 l 0,2.135 c 0,3.075 -0.832,4.014 -3.726,4.014 l -1.303,0 z"
             id="path42"
             style="fill:#124d7f;fill-opacity:1;fill-rule:nonzero;stroke:none" /></g><g
           transform="translate(107.7461,81.832)"
           id="g44"><path
             d="M 0,0 4.488,0 3.366,6.512 C 2.969,8.829 2.569,11.612 2.245,15.086 1.919,11.612 1.522,8.829 1.123,6.512 L 0,0 z m 4.92,-2.568 -5.352,0 -0.687,-4.088 -2.787,0 4.378,25.324 3.871,0 4.377,-25.324 -3.075,0 -0.725,4.088 z"
             id="path46"
             style="fill:#124d7f;fill-opacity:1;fill-rule:nonzero;stroke:none" /></g><path
           d="m 117.766,100.5 3.076,0 0,-25.324 -3.076,0 0,25.324 z"
           id="path48"
           style="fill:#124d7f;fill-opacity:1;fill-rule:nonzero;stroke:none" /><g
           transform="translate(135.2744,100.5)"
           id="g50"><path
             d="m 0,0 0,-25.324 -3.437,0 -4.486,15.375 c -0.434,1.592 -0.976,3.944 -1.411,5.754 0.108,-1.81 0.217,-4.307 0.217,-5.826 l 0,-15.303 -2.641,0 0,25.324 4.124,0 3.835,-13.24 c 0.435,-1.592 0.977,-3.945 1.447,-5.717 -0.107,1.772 -0.252,4.269 -0.252,5.789 L -2.604,0 0,0 z"
             id="path52"
             style="fill:#124d7f;fill-opacity:1;fill-rule:nonzero;stroke:none" /></g><g
           transform="translate(81.3569,59.3398)"
           id="g54"><path
             d="m 0,0 c 1.339,0 1.778,0.396 1.778,1.736 l 0,1.57 C 1.778,4.623 1.339,5.042 0,5.042 l -1.131,0 L -1.131,0 0,0 z m -1.131,-1.55 0,-6.507 -1.777,0 0,14.649 3.075,0 c 1.758,0 3.391,-0.399 3.391,-3.225 l 0,-1.358 c 0,-1.717 -0.692,-2.471 -1.633,-2.805 0.962,-0.334 1.633,-1.109 1.633,-2.867 l 0,-0.585 c 0,-2.638 0.187,-3.161 0.481,-3.809 l -1.925,0 c -0.126,0.439 -0.336,1.171 -0.336,2.951 l 0,1.234 c 0,1.778 -0.481,2.322 -2.154,2.322 l -0.755,0 z"
             id="path56"
             style="fill:#124d7f;fill-opacity:1;fill-rule:nonzero;stroke:none" /></g><g
           transform="translate(89.7251,52.8311)"
           id="g58"><path
             d="m 0,0 3.474,0 0,-1.548 -5.253,0 0,14.649 5.149,0 0,-1.55 -3.37,0 0,-4.687 2.993,0 0,-1.55 L 0,5.314 0,0 z"
             id="path60"
             style="fill:#124d7f;fill-opacity:1;fill-rule:nonzero;stroke:none" /></g><g
           transform="translate(97.1938,54.3809)"
           id="g62"><path
             d="m 0,0 c 0,-1.173 0.377,-1.759 1.423,-1.759 1.068,0 1.423,0.586 1.423,1.759 l 0,0.291 c 0,3.685 -4.519,3.14 -4.519,8.057 l 0,0.042 c 0,2.322 1.088,3.39 3.159,3.39 2.03,0 3.139,-1.068 3.139,-3.558 l 0,-1.36 -1.653,0 0,1.59 c 0,1.173 -0.377,1.758 -1.443,1.758 -1.048,0 -1.423,-0.585 -1.423,-1.758 l 0,-0.126 c 0,-3.703 4.519,-3.18 4.519,-8.077 l 0,-0.187 c 0,-2.323 -1.067,-3.391 -3.139,-3.391 -2.05,0 -3.159,1.09 -3.159,3.557 l 0,1.757 L 0,1.985 0,0 z"
             id="path64"
             style="fill:#124d7f;fill-opacity:1;fill-rule:nonzero;stroke:none" /></g><g
           transform="translate(106.4834,52.8311)"
           id="g66"><path
             d="m 0,0 3.474,0 0,-1.548 -5.251,0 0,14.649 5.146,0 0,-1.55 -3.369,0 0,-4.687 2.993,0 0,-1.55 L 0,5.314 0,0 z"
             id="path68"
             style="fill:#124d7f;fill-opacity:1;fill-rule:nonzero;stroke:none" /></g><g
           transform="translate(114.1011,55.1338)"
           id="g70"><path
             d="M 0,0 2.595,0 1.944,3.766 C 1.715,5.104 1.484,6.716 1.296,8.725 1.109,6.716 0.878,5.104 0.648,3.766 L 0,0 z m 2.846,-1.487 -3.099,0 -0.397,-2.364 -1.61,0 2.531,14.649 2.238,0 2.534,-14.649 -1.78,0 -0.417,2.364 z"
             id="path72"
             style="fill:#124d7f;fill-opacity:1;fill-rule:nonzero;stroke:none" /></g><g
           transform="translate(124.519,59.3398)"
           id="g74"><path
             d="m 0,0 c 1.339,0 1.779,0.396 1.779,1.736 l 0,1.57 C 1.779,4.623 1.339,5.042 0,5.042 l -1.129,0 L -1.129,0 0,0 z m -1.129,-1.55 0,-6.507 -1.779,0 0,14.649 3.075,0 c 1.759,0 3.39,-0.399 3.39,-3.225 l 0,-1.358 c 0,-1.717 -0.689,-2.471 -1.631,-2.805 0.963,-0.334 1.631,-1.109 1.631,-2.867 l 0,-0.585 c 0,-2.638 0.19,-3.161 0.481,-3.809 l -1.924,0 c -0.127,0.439 -0.335,1.171 -0.335,2.951 l 0,1.234 c 0,1.778 -0.481,2.322 -2.155,2.322 l -0.753,0 z"
             id="path76"
             style="fill:#124d7f;fill-opacity:1;fill-rule:nonzero;stroke:none" /></g><g
           transform="translate(134.1021,52.6221)"
           id="g78"><path
             d="m 0,0 c 1.046,0 1.507,0.586 1.507,1.759 l 0,2.635 1.673,0 0,-2.408 c 0,-2.488 -1.192,-3.556 -3.243,-3.556 -2.03,0 -3.223,1.068 -3.223,3.556 l 0,7.994 c 0,2.491 1.193,3.559 3.223,3.559 2.051,0 3.243,-1.068 3.243,-3.559 l 0,-1.966 -1.673,0 0,2.197 c 0,1.173 -0.461,1.758 -1.507,1.758 -1.068,0 -1.506,-0.585 -1.506,-1.758 l 0,-8.452 C -1.506,0.586 -1.068,0 0,0"
             id="path80"
             style="fill:#124d7f;fill-opacity:1;fill-rule:nonzero;stroke:none" /></g><g
           transform="translate(141.9692,51.2832)"
           id="g82"><path
             d="m 0,0 -1.781,0 0,14.648 1.781,0 0,-6.236 3.033,0 0,6.236 1.779,0 0,-14.648 -1.779,0 0,6.862 L 0,6.862 0,0 z"
             id="path84"
             style="fill:#124d7f;fill-opacity:1;fill-rule:nonzero;stroke:none" /></g><g
           transform="translate(158.0371,52.6221)"
           id="g86"><path
             d="m 0,0 c 1.047,0 1.506,0.586 1.506,1.759 l 0,2.635 1.676,0 0,-2.408 c 0,-2.488 -1.194,-3.556 -3.244,-3.556 -2.03,0 -3.223,1.068 -3.223,3.556 l 0,7.994 c 0,2.491 1.193,3.559 3.223,3.559 2.05,0 3.244,-1.068 3.244,-3.559 l 0,-1.966 -1.676,0 0,2.197 c 0,1.173 -0.459,1.758 -1.506,1.758 -1.068,0 -1.506,-0.585 -1.506,-1.758 l 0,-8.452 C -1.506,0.586 -1.068,0 0,0"
             id="path88"
             style="fill:#124d7f;fill-opacity:1;fill-rule:nonzero;stroke:none" /></g><g
           transform="translate(165.9043,52.8311)"
           id="g90"><path
             d="m 0,0 3.473,0 0,-1.548 -5.252,0 0,14.649 5.148,0 0,-1.55 -3.369,0 0,-4.687 2.992,0 0,-1.55 L 0,5.314 0,0 z"
             id="path92"
             style="fill:#124d7f;fill-opacity:1;fill-rule:nonzero;stroke:none" /></g><g
           transform="translate(178.877,65.9316)"
           id="g94"><path
             d="m 0,0 0,-14.648 -1.988,0 -2.596,8.892 c -0.25,0.92 -0.564,2.282 -0.814,3.327 0.06,-1.045 0.125,-2.49 0.125,-3.369 l 0,-8.85 -1.528,0 0,14.648 2.385,0 2.219,-7.66 c 0.25,-0.92 0.564,-2.28 0.838,-3.306 -0.065,1.026 -0.149,2.469 -0.149,3.347 L -1.508,0 0,0 z"
             id="path96"
             style="fill:#124d7f;fill-opacity:1;fill-rule:nonzero;stroke:none" /></g><g
           transform="translate(187.3301,64.3818)"
           id="g98"><path
             d="m 0,0 -2.24,0 0,-13.099 -1.778,0 0,13.099 -2.24,0 0,1.55 L 0,1.55 0,0 z"
             id="path100"
             style="fill:#124d7f;fill-opacity:1;fill-rule:nonzero;stroke:none" /></g><g
           transform="translate(192.4766,59.3398)"
           id="g102"><path
             d="m 0,0 c 1.34,0 1.777,0.396 1.777,1.736 l 0,1.57 C 1.777,4.623 1.34,5.042 0,5.042 l -1.131,0 L -1.131,0 0,0 z m -1.131,-1.55 0,-6.507 -1.777,0 0,14.649 3.076,0 c 1.756,0 3.389,-0.399 3.389,-3.225 l 0,-1.358 c 0,-1.717 -0.69,-2.471 -1.633,-2.805 0.963,-0.334 1.633,-1.109 1.633,-2.867 l 0,-0.585 c 0,-2.638 0.189,-3.161 0.482,-3.809 l -1.926,0 c -0.125,0.439 -0.336,1.171 -0.336,2.951 l 0,1.234 c 0,1.778 -0.48,2.322 -2.154,2.322 l -0.754,0 z"
             id="path104"
             style="fill:#124d7f;fill-opacity:1;fill-rule:nonzero;stroke:none" /></g><g
           transform="translate(200.8437,52.8311)"
           id="g106"><path
             d="m 0,0 3.475,0 0,-1.548 -5.254,0 0,14.649 5.15,0 0,-1.55 -3.371,0 0,-4.687 2.994,0 0,-1.55 L 0,5.314 0,0 z"
             id="path108"
             style="fill:#124d7f;fill-opacity:1;fill-rule:nonzero;stroke:none" /></g><g
           transform="translate(157.5195,75.1758)"
           id="g110"><path
             d="m 0,0 -1.809,12.337 c -0.326,2.207 -0.65,4.885 -0.83,7.381 -0.218,-2.496 -0.472,-5.174 -0.797,-7.381 L -5.209,0 l -3.619,0 -3.762,25.324 3.076,0 1.844,-12.3 c 0.4,-2.604 0.725,-5.355 0.941,-8.175 0.182,2.82 0.506,5.571 0.907,8.212 l 1.843,12.263 3.112,0 1.844,-12.3 C 1.375,10.42 1.664,7.669 1.881,4.849 c 0.217,2.82 0.508,5.571 0.906,8.212 l 1.844,12.263 2.822,0 L 3.689,0 0,0 z"
             id="path112"
             style="fill:#124d7f;fill-opacity:1;fill-rule:nonzero;stroke:none" /></g><g
           transform="translate(171.2637,77.4912)"
           id="g114"><path
             d="m 0,0 c 1.809,0 2.605,1.014 2.605,3.039 l 0,14.616 c 0,2.025 -0.796,3.038 -2.605,3.038 -1.846,0 -2.605,-1.013 -2.605,-3.038 l 0,-14.616 C -2.605,1.014 -1.846,0 0,0 m -5.682,17.257 c 0,4.305 2.065,6.149 5.682,6.149 3.58,0 5.68,-1.844 5.68,-6.149 l 0,-13.819 c 0,-4.306 -2.1,-6.151 -5.68,-6.151 -3.617,0 -5.682,1.845 -5.682,6.151 l 0,13.819 z"
             id="path116"
             style="fill:#124d7f;fill-opacity:1;fill-rule:nonzero;stroke:none" /></g><g
           transform="translate(184.248,89.1045)"
           id="g118"><path
             d="m 0,0 c 2.316,0 3.076,0.687 3.076,3.003 l 0,2.713 C 3.076,7.996 2.316,8.72 0,8.72 l -1.953,0 0,-8.72 L 0,0 z m -1.953,-2.678 0,-11.251 -3.074,0 0,25.325 5.318,0 c 3.037,0 5.859,-0.687 5.859,-5.572 l 0,-2.352 C 6.15,0.506 4.957,-0.796 3.328,-1.374 4.992,-1.954 6.15,-3.293 6.15,-6.332 l 0,-1.014 c 0,-4.557 0.327,-5.461 0.832,-6.583 l -3.328,0 c -0.215,0.759 -0.578,2.026 -0.578,5.102 l 0,2.135 c 0,3.075 -0.832,4.014 -3.726,4.014 l -1.303,0 z"
             id="path120"
             style="fill:#124d7f;fill-opacity:1;fill-rule:nonzero;stroke:none" /></g><g
           transform="translate(195.8223,87.4404)"
           id="g122"><path
             d="m 0,0 c 0.58,1.483 1.52,3.616 2.895,6.512 l 3.148,6.548 2.965,0 -4.885,-10.419 5.066,-14.906 -3.146,0 L 2.172,-0.616 0,-4.956 l 0,-7.309 -3.074,0 0,25.325 L 0,13.06 0,0 z"
             id="path124"
             style="fill:#124d7f;fill-opacity:1;fill-rule:nonzero;stroke:none" /></g><g
           transform="translate(143.6914,87.6455)"
           id="g126"><path
             d="m 0,0 c 0,-1.404 -1.14,-2.546 -2.546,-2.546 -1.406,0 -2.546,1.142 -2.546,2.546 0,1.405 1.14,2.545 2.546,2.545 C -1.14,2.545 0,1.405 0,0"
             id="path128"
             style="fill:#124d7f;fill-opacity:1;fill-rule:nonzero;stroke:none" /></g></g></g></g></svg>