<?xml version="1.0" encoding="UTF-8" standalone="no"?>
<!DOCTYPE svg PUBLIC "-//W3C//DTD SVG 1.0//EN" "http://www.w3.org/TR/2001/PR-SVG-20010719/DTD/svg10.dtd">
<svg width="27cm" height="9cm" viewBox="445 227 533 180" xmlns="http://www.w3.org/2000/svg" xmlns:xlink="http://www.w3.org/1999/xlink">
  <g>
    <rect style="fill: #d9d9cd" x="833" y="229" width="144.5" height="120.417"/>
    <rect style="fill: none; fill-opacity:0; stroke-width: 2; stroke: #000000" x="833" y="229" width="144.5" height="120.417"/>
    <rect style="fill: none; fill-opacity:0; stroke-width: 0.2; stroke: #000000" x="833" y="229" width="144.5" height="120.417"/>
    <rect style="fill: #a1a1a1" x="841.028" y="237.028" width="128.444" height="96.3333"/>
    <rect style="fill: none; fill-opacity:0; stroke-width: 2; stroke: #000000" x="841.028" y="237.028" width="128.444" height="96.3333"/>
    <rect style="fill: none; fill-opacity:0; stroke-width: 0.2; stroke: #000000" x="841.028" y="237.028" width="128.444" height="96.3333"/>
    <polygon style="fill: #d9d9cd" points="857.083,349.417 953.417,349.417 929.333,357.444 881.167,357.444 "/>
    <polygon style="fill: none; fill-opacity:0; stroke-width: 2; stroke: #000000" points="857.083,349.417 953.417,349.417 929.333,357.444 881.167,357.444 "/>
    <polygon style="fill: none; fill-opacity:0; stroke-width: 0.2; stroke: #000000" points="857.083,349.417 953.417,349.417 929.333,357.444 881.167,357.444 "/>
    <rect style="fill: #d9d9cd" x="881.167" y="357.444" width="48.1667" height="8.02778"/>
    <rect style="fill: none; fill-opacity:0; stroke-width: 2; stroke: #000000" x="881.167" y="357.444" width="48.1667" height="8.02778"/>
    <rect style="fill: none; fill-opacity:0; stroke-width: 0.2; stroke: #000000" x="881.167" y="357.444" width="48.1667" height="8.02778"/>
    <rect style="fill: #d9d9cd" x="857.083" y="365.472" width="96.3333" height="8.02778"/>
    <rect style="fill: none; fill-opacity:0; stroke-width: 2; stroke: #000000" x="857.083" y="365.472" width="96.3333" height="8.02778"/>
    <rect style="fill: none; fill-opacity:0; stroke-width: 0.2; stroke: #000000" x="857.083" y="365.472" width="96.3333" height="8.02778"/>
  </g>
  <g>
    <polygon style="fill: #343434" points="643.581,233.578 767.324,233.578 767.324,368.922 651.315,368.922 643.581,361.188 "/>
    <polygon style="fill: none; fill-opacity:0; stroke-width: 2; stroke: #003c78" points="643.581,233.578 767.324,233.578 767.324,368.922 651.315,368.922 643.581,361.188 "/>
    <polygon style="fill: none; fill-opacity:0; stroke-width: 0.2; stroke: #000000" points="643.581,233.578 767.324,233.578 767.324,368.922 651.315,368.922 643.581,361.188 "/>
    <rect style="fill: #ffffff" x="645.515" y="241.312" width="7.73393" height="7.73393"/>
    <rect style="fill: none; fill-opacity:0; stroke-width: 2; stroke: #003c78" x="645.515" y="241.312" width="7.73393" height="7.73393"/>
    <rect style="fill: none; fill-opacity:0; stroke-width: 0.2; stroke: #000000" x="645.515" y="241.312" width="7.73393" height="7.73393"/>
    <rect style="fill: #ffffff" x="757.657" y="241.312" width="7.73393" height="7.73393"/>
    <rect style="fill: none; fill-opacity:0; stroke-width: 2; stroke: #003c78" x="757.657" y="241.312" width="7.73393" height="7.73393"/>
    <rect style="fill: none; fill-opacity:0; stroke-width: 0.2; stroke: #000000" x="757.657" y="241.312" width="7.73393" height="7.73393"/>
    <rect style="fill: #ffffff" x="655.182" y="233.578" width="100.541" height="81.2063"/>
    <rect style="fill: none; fill-opacity:0; stroke-width: 2; stroke: #003c78" x="655.182" y="233.578" width="100.541" height="81.2063"/>
    <rect style="fill: none; fill-opacity:0; stroke-width: 0.2; stroke: #000000" x="655.182" y="233.578" width="100.541" height="81.2063"/>
    <rect style="fill: #343434" x="670.65" y="322.518" width="85.0732" height="46.4036"/>
    <rect style="fill: none; fill-opacity:0; stroke-width: 2; stroke: #003c78" x="670.65" y="322.518" width="85.0732" height="46.4036"/>
    <rect style="fill: none; fill-opacity:0; stroke-width: 0.2; stroke: #000000" x="670.65" y="322.518" width="85.0732" height="46.4036"/>
    <rect style="fill: #cdcdcd" x="670.65" y="322.518" width="65.7384" height="46.4036"/>
    <rect style="fill: none; fill-opacity:0; stroke-width: 2; stroke: #003c78" x="670.65" y="322.518" width="65.7384" height="46.4036"/>
    <rect style="fill: none; fill-opacity:0; stroke-width: 0.2; stroke: #000000" x="670.65" y="322.518" width="65.7384" height="46.4036"/>
    <rect style="fill: #343434" x="682.251" y="326.385" width="15.4679" height="34.8027"/>
    <rect style="fill: none; fill-opacity:0; stroke-width: 2; stroke: #003c78" x="682.251" y="326.385" width="15.4679" height="34.8027"/>
    <rect style="fill: none; fill-opacity:0; stroke-width: 0.2; stroke: #000000" x="682.251" y="326.385" width="15.4679" height="34.8027"/>
    <line style="fill: none; fill-opacity:0; stroke-width: 0.2; stroke: #000000" x1="666.783" y1="249.046" x2="744.122" y2="249.046"/>
    <line style="fill: none; fill-opacity:0; stroke-width: 0.2; stroke: #000000" x1="744.122" y1="264.514" x2="666.783" y2="264.514"/>
    <line style="fill: none; fill-opacity:0; stroke-width: 0.2; stroke: #000000" x1="666.783" y1="279.982" x2="744.122" y2="279.982"/>
    <line style="fill: none; fill-opacity:0; stroke-width: 0.2; stroke: #000000" x1="744.122" y1="295.45" x2="666.783" y2="295.45"/>
  </g>
  <g>
    <rect style="fill: #f0f0f0" x="447" y="238" width="126.5" height="126.5"/>
    <rect style="fill: none; fill-opacity:0; stroke-width: 2; stroke: #003c78" x="447" y="238" width="126.5" height="126.5"/>
    <line style="fill: none; fill-opacity:0; stroke-width: 1; stroke: #c0c0c0" x1="510.25" y1="250.65" x2="510.25" y2="351.85"/>
    <line style="fill: none; fill-opacity:0; stroke-width: 1; stroke: #c0c0c0" x1="459.65" y1="301.25" x2="560.85" y2="301.25"/>
    <path style="fill: none; fill-opacity:0; stroke-width: 2; stroke: #003c78" d="M 459.65 301.25 C 459.65,301.25 472.3,339.2 484.95,339.2 C 497.6,339.2 522.9,263.3 535.55,263.3 C 548.2,263.3 560.85,301.25 560.85,301.25"/>
  </g>
  <text font-size="12.8" style="fill: #000000;text-anchor:start;font-family:Verdana;font-style:normal;font-weight:normal" x="476.05" y="404">
    <tspan x="476.05" y="404">Simulation</tspan>
  </text>
  <text font-size="12.8" style="fill: #000000;text-anchor:start;font-family:Verdana;font-style:normal;font-weight:normal" x="673.603" y="405">
    <tspan x="673.603" y="405">Recording</tspan>
  </text>
  <text font-size="12.8" style="fill: #000000;text-anchor:start;font-family:Verdana;font-style:normal;font-weight:normal" x="864.975" y="399">
    <tspan x="864.975" y="399">Visualization</tspan>
  </text>
  <polyline style="fill: none; fill-opacity:0; stroke-width: 4; stroke: #00a0be" points="855.784,292.488 862.513,300.812 877.378,309.731 884.216,292.191 894.622,296.947 900.568,292.191 907.406,305.272 914.541,289.515 923.757,306.164 941.298,297.245 951.703,293.38 960.784,292.488 "/>
  <polyline style="fill: none; fill-opacity:0; stroke-width: 4; stroke: #00a0be" points="848.238,271.668 858.946,278.812 866.264,270.776 875.594,264.839 886.297,277.623 894.622,276.136 902.238,272.262 910.973,281.785 919.298,264.542 930.892,280.001 941.001,265.731 952.893,266.92 "/>
</svg>
